<?xml version="1.0" encoding="utf-8"?>
<!-- Generator: Adobe Illustrator 24.0.1, SVG Export Plug-In . SVG Version: 6.00 Build 0)  -->
<svg version="1.1" id="Layer_1" xmlns="http://www.w3.org/2000/svg" xmlns:xlink="http://www.w3.org/1999/xlink" x="0px" y="0px"
	 viewBox="0 0 172 24" style="enable-background:new 0 0 172 24;" xml:space="preserve">
<style type="text/css">
	.st0{fill:#363F5F;}
	.st1{fill:#FFFFFF;}
	.st2{fill:#49AA26;}
</style>
<path class="st0" d="M0,13.7c0-1.5,0.3-2.9,0.9-4.1c0.6-1.2,1.5-2.1,2.5-2.7c1.1-0.7,2.3-1,3.6-1c1,0,1.9,0.2,2.9,0.7
	c1,0.4,1.7,1,2.3,1.7V0.9h3.1v20.5h-3.1v-2.3c-0.5,0.7-1.2,1.3-2.1,1.8c-0.9,0.5-1.9,0.7-3,0.7c-1.3,0-2.5-0.3-3.6-1
	c-1.1-0.7-1.9-1.6-2.5-2.8C0.3,16.6,0,15.2,0,13.7z M12.1,13.7c0-1.1-0.2-2-0.6-2.7c-0.4-0.8-1-1.4-1.6-1.8C9.2,8.8,8.4,8.6,7.6,8.6
	c-0.8,0-1.5,0.2-2.2,0.6c-0.7,0.4-1.2,1-1.7,1.7c-0.4,0.8-0.6,1.7-0.6,2.7c0,1.1,0.2,2,0.6,2.8c0.4,0.8,1,1.4,1.7,1.8
	c0.7,0.4,1.4,0.6,2.2,0.6c0.8,0,1.5-0.2,2.2-0.6c0.7-0.4,1.2-1,1.6-1.8C11.9,15.7,12.1,14.8,12.1,13.7z"/>
<path class="st0" d="M32.8,13.4c0,0.6,0,1.1-0.1,1.5H21.4c0.1,1.2,0.5,2.2,1.3,2.9c0.8,0.7,1.8,1.1,2.9,1.1c1.6,0,2.8-0.7,3.5-2.1
	h3.3c-0.4,1.4-1.3,2.6-2.4,3.5c-1.2,0.9-2.6,1.3-4.4,1.3c-1.4,0-2.7-0.3-3.8-1c-1.1-0.7-2-1.6-2.6-2.8c-0.6-1.2-0.9-2.6-0.9-4.1
	s0.3-2.9,0.9-4.1c0.6-1.2,1.5-2.1,2.6-2.8c1.1-0.6,2.4-1,3.9-1c1.4,0,2.6,0.3,3.7,0.9c1.1,0.6,1.9,1.5,2.6,2.7
	C32.5,10.6,32.8,11.9,32.8,13.4z M29.6,12.4c0-1.2-0.4-2.1-1.2-2.8c-0.8-0.7-1.8-1.1-2.9-1.1c-1.1,0-2,0.4-2.7,1.1
	c-0.8,0.7-1.2,1.6-1.3,2.8H29.6z"/>
<path class="st0" d="M41.6,18.5l4.2-12.4H49l-5.6,15.2h-3.7L34.1,6.1h3.3L41.6,18.5z"/>
<path class="st1" d="M52.6,21.5c-0.6,0-1-0.2-1.4-0.6c-0.4-0.4-0.6-0.9-0.6-1.4c0-0.6,0.2-1.1,0.6-1.4c0.4-0.4,0.8-0.6,1.4-0.6
	c0.5,0,1,0.2,1.4,0.6c0.4,0.4,0.6,0.9,0.6,1.4c0,0.6-0.2,1.1-0.6,1.4C53.6,21.4,53.1,21.5,52.6,21.5z"/>
<path class="st0" d="M64,8.7h-2.7v12.7h-3.1V8.7h-1.7V6.1h1.7V5c0-1.8,0.4-3,1.3-3.8C60.5,0.4,61.9,0,63.8,0v2.6
	c-0.9,0-1.6,0.2-2,0.6c-0.4,0.4-0.6,1-0.6,1.9v1.1H64V8.7z"/>
<path class="st0" d="M68.3,4.1c-0.6,0-1-0.2-1.4-0.6c-0.4-0.4-0.6-0.9-0.6-1.4c0-0.6,0.2-1.1,0.6-1.4c0.4-0.4,0.8-0.6,1.4-0.6
	c0.5,0,1,0.2,1.4,0.6c0.4,0.4,0.6,0.9,0.6,1.4c0,0.6-0.2,1.1-0.6,1.4C69.3,3.9,68.9,4.1,68.3,4.1z M69.8,6.1v15.2h-3.1V6.1H69.8z"/>
<path class="st0" d="M81.3,5.9c1.2,0,2.2,0.2,3.1,0.7c0.9,0.5,1.7,1.2,2.2,2.2c0.5,1,0.8,2.2,0.8,3.5v9h-3v-8.5c0-1.4-0.3-2.4-1-3.1
	c-0.7-0.7-1.6-1.1-2.7-1.1S78.6,9,77.9,9.7c-0.7,0.7-1,1.8-1,3.1v8.5h-3.1V6.1h3.1v1.7c0.5-0.6,1.1-1.1,1.9-1.5
	C79.6,6,80.5,5.9,81.3,5.9z"/>
<path class="st0" d="M90.3,13.7c0-1.5,0.3-2.9,0.9-4.1c0.6-1.2,1.5-2.1,2.5-2.7c1.1-0.7,2.3-1,3.6-1c1.2,0,2.2,0.2,3,0.7
	c0.9,0.5,1.6,1,2.1,1.7V6.1h3.1v15.2h-3.1v-2.3c-0.5,0.7-1.2,1.3-2.1,1.8c-0.9,0.5-1.9,0.7-3.1,0.7c-1.3,0-2.4-0.3-3.5-1
	c-1.1-0.7-1.9-1.6-2.5-2.8C90.6,16.6,90.3,15.2,90.3,13.7z M102.4,13.7c0-1.1-0.2-2-0.6-2.7c-0.4-0.8-1-1.4-1.6-1.8
	c-0.7-0.4-1.4-0.6-2.2-0.6c-0.8,0-1.5,0.2-2.2,0.6c-0.7,0.4-1.2,1-1.7,1.7c-0.4,0.8-0.6,1.7-0.6,2.7c0,1.1,0.2,2,0.6,2.8
	c0.4,0.8,1,1.4,1.7,1.8c0.7,0.4,1.4,0.6,2.2,0.6c0.8,0,1.5-0.2,2.2-0.6c0.7-0.4,1.2-1,1.6-1.8C102.2,15.7,102.4,14.8,102.4,13.7z"/>
<path class="st0" d="M117,5.9c1.2,0,2.2,0.2,3.1,0.7c0.9,0.5,1.7,1.2,2.2,2.2c0.5,1,0.8,2.2,0.8,3.5v9h-3v-8.5c0-1.4-0.3-2.4-1-3.1
	c-0.7-0.7-1.6-1.1-2.7-1.1c-1.1,0-2.1,0.4-2.7,1.1c-0.7,0.7-1,1.8-1,3.1v8.5h-3.1V6.1h3.1v1.7c0.5-0.6,1.1-1.1,1.9-1.5
	C115.3,6,116.2,5.9,117,5.9z"/>
<path class="st0" d="M126,13.7c0-1.6,0.3-2.9,0.9-4.1c0.6-1.2,1.5-2.1,2.6-2.8c1.1-0.6,2.3-1,3.8-1c1.8,0,3.3,0.4,4.4,1.3
	c1.2,0.9,2,2.1,2.4,3.7h-3.3c-0.3-0.8-0.7-1.3-1.3-1.8c-0.6-0.4-1.3-0.6-2.2-0.6c-1.3,0-2.3,0.5-3,1.4c-0.7,0.9-1.1,2.2-1.1,3.8
	s0.4,2.9,1.1,3.8c0.8,0.9,1.8,1.4,3,1.4c1.8,0,2.9-0.8,3.5-2.4h3.3c-0.4,1.5-1.2,2.8-2.4,3.7c-1.2,0.9-2.7,1.4-4.4,1.4
	c-1.4,0-2.7-0.3-3.8-1c-1.1-0.7-2-1.6-2.6-2.8C126.3,16.7,126,15.3,126,13.7z"/>
<path class="st0" d="M156.7,13.4c0,0.6,0,1.1-0.1,1.5h-11.3c0.1,1.2,0.5,2.2,1.3,2.9c0.8,0.7,1.8,1.1,2.9,1.1c1.7,0,2.8-0.7,3.5-2.1
	h3.3c-0.4,1.4-1.3,2.6-2.4,3.5c-1.2,0.9-2.6,1.3-4.4,1.3c-1.4,0-2.7-0.3-3.8-1c-1.1-0.7-2-1.6-2.6-2.8c-0.6-1.2-0.9-2.6-0.9-4.1
	s0.3-2.9,0.9-4.1c0.6-1.2,1.5-2.1,2.6-2.8c1.1-0.6,2.4-1,3.9-1c1.4,0,2.6,0.3,3.7,0.9c1.1,0.6,1.9,1.5,2.6,2.7
	C156.4,10.6,156.7,11.9,156.7,13.4z M153.5,12.4c0-1.2-0.4-2.1-1.2-2.8c-0.8-0.7-1.8-1.1-2.9-1.1c-1.1,0-2,0.4-2.7,1.1
	c-0.8,0.7-1.2,1.6-1.3,2.8H153.5z"/>
<path class="st2" d="M52.6,21.5c-0.6,0-1-0.2-1.4-0.6c-0.4-0.4-0.6-0.9-0.6-1.4s0.2-1.1,0.6-1.4c0.4-0.4,0.8-0.6,1.4-0.6
	c0.5,0,1,0.2,1.4,0.6c0.4,0.4,0.6,0.9,0.6,1.4S54.3,20.6,54,21C53.6,21.4,53.1,21.5,52.6,21.5z"/>
<path class="st2" d="M172,17.3c0,0.8-0.2,1.5-0.7,2.2c-0.4,0.7-1.1,1.3-2,1.7c-0.9,0.5-1.9,0.7-3,0.8V24h-1.8v-1.9
	c-1.7-0.1-3.1-0.6-4.1-1.4s-1.6-1.8-1.6-3.1h3.3c0.1,0.6,0.3,1.1,0.7,1.5c0.4,0.4,1,0.6,1.7,0.7v-5.2c-1.2-0.3-2.2-0.5-3-0.8
	c-0.8-0.3-1.4-0.7-2-1.3c-0.5-0.6-0.8-1.4-0.8-2.4c0-1.3,0.5-2.4,1.6-3.2c1.1-0.9,2.4-1.4,4.1-1.5V3.6h1.8v1.9
	c1.6,0.1,2.9,0.6,3.8,1.3c1,0.7,1.5,1.7,1.7,3h-3.3c-0.1-0.5-0.3-0.9-0.7-1.3c-0.4-0.4-0.9-0.7-1.5-0.8v5.1c1.2,0.2,2.2,0.5,3,0.8
	c0.8,0.3,1.4,0.7,1.9,1.3C171.7,15.5,172,16.3,172,17.3z M162,10.1c0,0.6,0.2,1.1,0.7,1.5c0.5,0.4,1.1,0.6,1.9,0.9V7.7
	c-0.8,0.1-1.4,0.3-1.9,0.7C162.2,8.8,162,9.4,162,10.1z M166.3,19.9c0.8-0.1,1.4-0.4,1.9-0.8c0.5-0.5,0.7-1,0.7-1.6
	c0-0.6-0.2-1.1-0.7-1.5c-0.4-0.4-1.1-0.6-1.9-0.9V19.9z"/>
</svg>
